PathFileType	4	(X/Y/Z)	C:/Users/opensim2020/Desktop/walking_exp_matlab/subject01_walking06_straight_03.trc	
DataRate	CameraRate	NumFrames	NumMarkers	Units	OrigDataRate	OrigDataStartFrame	OrigNumFrames	
100.00	100.00	8	43	mm	100.00	2156	206	
Frame#	Time	LFHD			RFHD			LBHD			RBHD			C7			T10			CLAV			STRN			RBAK			LSHO			LUPA			LELB			LFRM			LWRA			LWRB			LFIN			RSHO			RUPA			RELB			RFRM			RWRA			RWRB			RFIN			LASI			RASI			LPSI			RPSI			LTHI			LKNE			LTIB			LANK			LHEE			LTOE			RTHI			RKNE			RTIB			RANK			RHEE			RTOE			*39			*40			*41			*42			
		X1	Y1	Z1	X2	Y2	Z2	X3	Y3	Z3	X4	Y4	Z4	X5	Y5	Z5	X6	Y6	Z6	X7	Y7	Z7	X8	Y8	Z8	X9	Y9	Z9	X10	Y10	Z10	X11	Y11	Z11	X12	Y12	Z12	X13	Y13	Z13	X14	Y14	Z14	X15	Y15	Z15	X16	Y16	Z16	X17	Y17	Z17	X18	Y18	Z18	X19	Y19	Z19	X20	Y20	Z20	X21	Y21	Z21	X22	Y22	Z22	X23	Y23	Z23	X24	Y24	Z24	X25	Y25	Z25	X26	Y26	Z26	X27	Y27	Z27	X28	Y28	Z28	X29	Y29	Z29	X30	Y30	Z30	X31	Y31	Z31	X32	Y32	Z32	X33	Y33	Z33	X34	Y34	Z34	X35	Y35	Z35	X36	Y36	Z36	X37	Y37	Z37	X38	Y38	Z38	X39	Y39	Z39	X40	Y40	Z40	X41	Y41	Z41	X42	Y42	Z42	X43	Y43	Z43	

52	0.510	1372.13867	-547.71112	1665.12903	1482.53137	-517.97595	1675.54822	1399.17029	-662.72864	1623.98950	1516.13733	-634.47003	1634.05090	1444.16724	-698.83459	1433.44519	1462.41260	-742.04858	1141.77942	1437.75671	-555.84900	1362.92700	1432.00830	-517.01764	1207.40112	1527.13745	-754.00983	1241.93555	1279.26587	-622.98859	1391.54163	1194.68933	-644.95526	1205.69446	1191.08203	-642.91083	1053.06763	1166.67249	-575.21460	958.35944	1183.17017	-466.32104	872.13422	1161.92773	-517.70166	850.71320	1150.69128	-451.95435	798.63538	1592.75989	-611.65491	1394.00525	1695.07800	-683.60461	1200.43616	1696.48352	-695.47791	1076.81360	1729.14648	-685.55829	957.56921	1713.11560	-623.03333	829.59656	1752.57947	-666.39630	837.93573	1747.95776	-643.66846	753.73816	1346.31091	-586.91229	929.95313	1560.69641	-563.84509	939.01654	1421.09106	-766.48358	945.60278	1565.61719	-747.16895	946.47626	1303.85620	-639.77148	598.79443	1323.45801	-655.65002	464.41635	1324.34961	-717.56714	283.65793	1386.08838	-745.21613	66.49812	1443.73889	-784.41315	38.44000	1367.03357	-598.72717	31.44044	1634.68201	-517.65802	620.68219	1612.27820	-474.71292	467.31760	1613.46301	-568.05487	315.70551	1565.96338	-640.83350	123.84201	1509.42432	-690.40222	95.15051	1585.01990	-523.59644	48.92073	1460.32458	-532.17365	1708.69458	-3101.92090	1973.17334	1023.25861	-3140.74634	2012.60352	1021.99066			 
53	0.520	1371.70935	-538.98224	1664.64783	1482.10547	-509.34802	1674.80994	1398.55493	-654.16101	1623.71594	1515.55615	-625.95276	1633.53223	1443.28394	-690.47137	1432.97546	1461.40869	-734.04504	1141.43799	1436.95361	-547.57068	1362.37073	1431.12170	-508.85992	1206.79065	1526.06653	-746.03186	1241.67834	1278.47986	-614.59692	1391.14709	1193.60962	-635.89191	1205.50439	1189.52429	-632.62628	1052.63647	1165.34094	-562.49786	959.56433	1182.09302	-451.38928	876.35956	1160.82751	-502.08383	853.46857	1149.49011	-434.91995	803.59900	1591.99377	-603.46930	1393.38171	1693.97327	-676.14117	1199.77747	1695.21558	-688.45770	1076.43225	1728.00220	-680.34344	957.30164	1712.33618	-620.00134	828.23816	1751.71887	-663.29822	837.47253	1747.13318	-642.16071	752.79059	1345.33020	-579.48199	929.09277	1559.64807	-555.88049	938.50092	1420.49817	-758.87256	945.17297	1565.02222	-739.17822	945.91187	1303.47034	-635.38403	598.29761	1323.06287	-652.93701	464.04575	1324.28992	-715.96277	283.78705	1386.30029	-744.71277	66.84698	1444.04163	-784.03632	39.00838	1366.80334	-598.43726	31.38436	1633.04590	-508.34067	620.72577	1609.92627	-464.44107	467.49847	1611.27771	-550.43951	311.62781	1563.65210	-613.14093	116.21378	1507.65710	-661.84875	86.19948	1581.89941	-491.85254	48.08881	1459.92358	-523.41821	1708.07861	-3102.01953	1973.00293	1023.83276	-3140.56592	2012.51233	1021.97736			 
54	0.530	1371.34583	-530.26312	1664.11816	1481.69592	-500.80954	1674.09790	1398.05103	-645.48810	1623.32703	1515.07080	-617.39667	1632.95178	1442.50977	-682.03760	1432.48706	1460.52734	-725.98047	1141.02698	1436.23999	-539.25159	1361.73389	1430.30469	-500.63107	1206.15015	1525.02124	-737.81256	1241.10315	1277.75500	-606.06738	1390.69617	1192.57520	-626.68524	1205.18555	1188.24451	-622.20093	1052.26758	1164.16797	-549.79926	960.72443	1181.09900	-436.58469	880.57239	1159.87378	-486.61407	856.22949	1148.66870	-417.89230	808.13684	1591.30286	-595.20691	1392.64624	1692.93372	-668.57227	1199.11572	1694.13733	-681.36609	1076.06763	1727.02942	-674.90930	957.00085	1711.62012	-616.65802	826.96045	1750.96570	-659.89978	836.92847	1746.48364	-640.24310	751.87854	1344.37598	-571.94897	928.27142	1558.65759	-547.77515	937.90930	1420.01880	-751.15082	944.71411	1564.47046	-731.15430	945.25482	1303.15063	-630.75970	597.86670	1322.74121	-650.02612	463.76324	1324.27551	-714.34875	283.97244	1386.53870	-744.18018	67.30707	1444.31104	-783.62213	39.76463	1366.71545	-598.03601	31.18007	1631.98438	-499.13605	620.68176	1607.62427	-454.61880	467.62350	1609.35889	-532.78156	307.74908	1561.77185	-585.00574	109.12290	1505.83740	-632.51923	76.55998	1579.17847	-459.82538	47.76320	1459.66479	-514.73010	1707.40015	-3101.90967	1973.18433	1023.44440	-3140.60547	2012.52087	1021.98999			 
55	0.540	1371.06470	-521.54382	1663.58630	1481.52148	-492.10614	1673.38110	1397.60413	-636.66705	1622.76233	1514.69958	-608.82721	1632.30212	1441.87842	-673.55664	1432.02356	1459.77148	-717.89972	1140.59070	1435.61450	-530.84369	1361.08765	1429.57837	-492.31229	1205.47046	1524.12817	-729.56775	1240.51770	1277.13464	-597.53320	1390.19836	1191.60425	-617.46674	1204.83850	1186.99158	-611.92706	1051.84973	1163.16663	-537.18530	961.92139	1180.23376	-422.10892	884.71381	1159.03516	-471.39139	859.03058	1147.76074	-401.37479	812.81879	1590.68140	-586.82733	1391.88354	1692.02197	-660.91663	1198.41003	1693.12744	-674.17139	1075.62854	1726.16357	-669.26709	956.69214	1711.05774	-612.95874	825.71472	1750.38245	-656.26343	836.45856	1745.98425	-637.92517	751.10516	1343.50586	-564.28229	927.41394	1557.73914	-539.52155	937.25281	1419.62634	-743.39148	944.15771	1564.06494	-723.12000	944.74347	1302.96082	-626.02753	597.44757	1322.44629	-647.04755	463.46603	1324.27368	-712.70642	284.21906	1386.70752	-743.63708	67.67497	1444.65454	-783.19476	40.63719	1366.67090	-597.63654	30.86698	1630.77100	-490.64087	620.09943	1605.32410	-445.36578	467.43295	1607.87720	-515.13354	304.14020	1560.02209	-556.38116	102.54069	1504.74390	-602.74677	67.67006	1576.31384	-427.67117	48.03422	1459.48804	-506.05600	1706.71106	-3101.99707	1973.22266	1023.26471	-3140.58984	2012.55811	1022.03674			 
56	0.550	1370.92065	-512.76489	1662.99146	1481.42883	-483.44348	1672.66394	1397.23389	-628.10175	1622.29700	1514.36060	-600.27118	1631.55835	1441.29053	-664.96942	1431.47705	1459.16162	-709.65686	1140.13000	1435.09009	-522.34088	1360.35974	1428.90161	-483.97342	1204.72510	1523.40320	-721.25305	1239.91467	1276.60327	-588.85400	1389.70520	1190.77441	-608.14178	1204.42944	1185.86279	-601.59277	1051.35022	1162.24097	-524.70465	963.01196	1179.43030	-407.92825	888.80402	1158.33667	-456.49042	861.74963	1146.99243	-385.37521	817.56653	1590.18921	-578.33044	1391.04761	1691.20349	-653.26263	1197.75732	1692.15674	-666.86743	1075.01953	1725.37378	-663.47723	956.28412	1710.60999	-608.98926	824.58710	1749.77869	-651.97375	835.99066	1745.60376	-635.09760	750.33026	1342.64331	-556.59052	926.56177	1556.88928	-531.12909	936.51630	1419.37170	-735.45013	943.65491	1563.62805	-714.73730	944.08020	1302.81079	-621.08264	597.11810	1322.22266	-643.92749	463.18805	1324.26660	-711.10815	284.56815	1386.93713	-743.15637	68.22803	1444.91687	-782.81415	41.42459	1366.87793	-597.19269	30.44592	1629.58557	-482.74561	619.18347	1603.05225	-436.40860	467.15714	1606.61694	-497.71295	300.95987	1558.94702	-527.65698	96.70567	1503.73828	-571.85040	58.94191	1573.55627	-395.69507	49.20750	1459.40845	-497.32901	1705.99194	-3102.05933	1972.85242	1023.91254	-3140.55493	2012.55432	1022.04663			 
57	0.560	1370.79333	-503.97079	1662.34631	1481.37573	-474.77673	1671.84753	1397.00513	-619.36993	1621.63049	1514.16370	-591.61444	1630.76917	1440.82068	-656.30359	1430.79651	1458.65039	-701.31244	1139.43994	1434.67700	-513.75317	1359.59558	1428.31909	-475.52292	1203.93579	1522.80847	-712.79059	1239.21606	1276.18079	-580.15820	1389.08813	1190.03003	-598.70032	1204.05457	1185.33167	-590.15448	1050.74902	1161.49866	-512.41193	964.10480	1178.75134	-394.04919	892.73511	1157.81409	-441.92801	864.44550	1146.08398	-369.92856	822.16827	1589.72534	-569.84485	1390.18921	1690.45337	-645.49011	1197.01270	1691.37219	-659.51965	1074.48645	1724.70251	-657.48071	955.88196	1710.23987	-604.57556	823.39105	1749.30615	-647.47821	835.48535	1745.31641	-631.80469	749.57355	1341.88538	-548.80804	925.80078	1556.07800	-522.55133	935.76874	1419.18359	-727.31848	943.03876	1563.31567	-706.39124	943.43683	1302.64954	-615.91962	596.73126	1322.01465	-640.76251	463.06009	1324.33264	-709.54041	285.15979	1387.12952	-742.81311	68.85172	1445.29919	-782.42767	42.40995	1366.81189	-596.97272	30.31612	1628.41138	-475.34839	617.92047	1600.76636	-427.66736	466.73251	1605.47754	-480.48529	297.92834	1558.23645	-498.80954	91.71032	1503.61279	-541.80676	52.03411	1570.82886	-364.28604	51.19009	1459.37207	-488.62122	1705.20093	-3101.90967	1973.16016	1023.37280	-3140.59399	2012.67639	1022.15155			 
58	0.570	1370.80090	-495.14755	1661.63318	1481.43323	-466.00558	1670.99890	1396.85022	-610.52136	1620.92102	1514.05750	-582.91888	1629.89160	1440.48291	-647.62476	1430.19592	1458.34021	-692.92517	1138.86926	1434.32849	-505.13916	1358.76135	1427.83594	-467.00433	1203.14868	1522.40833	-704.30750	1238.52966	1275.89917	-571.38672	1388.49341	1189.41125	-589.14966	1203.61255	1184.24475	-579.76788	1050.58618	1160.76111	-500.21353	965.12805	1178.24133	-380.37897	896.52716	1157.44958	-427.64185	867.00592	1145.59314	-354.53104	826.39435	1589.38916	-561.19794	1389.34534	1689.82825	-637.69269	1196.29871	1690.67065	-652.06238	1073.90405	1724.20313	-651.19971	955.44775	1710.00928	-599.84540	822.38147	1749.03796	-642.53931	835.04419	1745.15723	-628.08386	748.90839	1341.19604	-540.84344	925.07050	1555.35278	-513.79340	935.02673	1419.04968	-719.07697	942.50891	1563.05737	-697.72632	942.78711	1302.63782	-610.75531	596.40033	1321.73425	-637.47424	462.95233	1324.43237	-707.79657	285.61740	1387.44397	-742.60016	69.81511	1445.61658	-781.95331	43.39872	1366.71655	-596.80682	30.21421	1626.96814	-468.66541	616.19885	1598.50476	-419.18820	466.03897	1604.59094	-463.35349	295.38806	1557.76392	-470.28217	87.67946	1503.81665	-511.99393	46.12162	1568.28992	-333.32098	54.26152	1459.43665	-479.93466	1704.45007	-3101.88452	1973.22729	1023.37805	-3140.71851	2012.60681	1022.07684			 
59	0.580	1370.93896	-486.20831	1660.92358	1481.50781	-457.30737	1670.11536	1396.83789	-601.67651	1620.18140	1514.05762	-574.13226	1628.99170	1440.25806	-638.89496	1429.49976	1458.13928	-684.44836	1138.27026	1434.13794	-496.42538	1357.93457	1427.47510	-458.40100	1202.29907	1522.05920	-695.67639	1237.76917	1275.70801	-562.57922	1387.90698	1188.96643	-579.62823	1203.18945	1183.51074	-569.09076	1049.93372	1160.21191	-488.21106	966.05310	1177.84900	-366.99527	900.08972	1157.12158	-413.60254	869.45441	1145.15759	-339.55334	830.57892	1589.19946	-552.59424	1388.44153	1689.31750	-629.81671	1195.50745	1690.17212	-644.53998	1073.34473	1723.79419	-644.76794	955.01245	1709.87805	-594.61530	821.33398	1748.85693	-637.25958	834.63025	1745.12134	-623.81610	748.25525	1340.61914	-532.75751	924.35986	1554.74146	-504.92239	934.19495	1419.01941	-710.59784	941.94513	1562.93030	-688.85822	942.12231	1302.66833	-605.42609	596.09607	1321.61621	-633.94617	462.86841	1324.49951	-706.07135	286.28598	1387.51526	-741.99066	70.28539	1445.93726	-781.53308	44.43046	1366.65234	-596.62433	30.14239	1625.99170	-461.91757	614.54364	1596.27087	-410.91928	465.20435	1603.76416	-446.53372	293.09000	1557.43420	-442.44501	84.80163	1504.10706	-482.87811	41.35497	1565.63428	-303.50287	58.02654	1459.60950	-471.13528	1703.61829	-3101.90405	1973.00720	1023.62830	-3140.49023	2012.55420	1022.12177			 
